<svg width="40" height="33" viewBox="0 0 40 33" fill="none" xmlns="http://www.w3.org/2000/svg">
<path d="M8.57143 20.7143C8.57143 19.9256 8.29241 19.2522 7.73438 18.6942C7.17634 18.1362 6.50298 17.8571 5.71429 17.8571C4.9256 17.8571 4.25223 18.1362 3.6942 18.6942C3.13616 19.2522 2.85714 19.9256 2.85714 20.7143C2.85714 21.503 3.13616 22.1763 3.6942 22.7344C4.25223 23.2924 4.9256 23.5714 5.71429 23.5714C6.50298 23.5714 7.17634 23.2924 7.73438 22.7344C8.29241 22.1763 8.57143 21.503 8.57143 20.7143ZM12.8571 10.7143C12.8571 9.9256 12.5781 9.25223 12.0201 8.6942C11.4621 8.13616 10.7887 7.85714 10 7.85714C9.21131 7.85714 8.53795 8.13616 7.97991 8.6942C7.42188 9.25223 7.14286 9.9256 7.14286 10.7143C7.14286 11.503 7.42188 12.1763 7.97991 12.7344C8.53795 13.2924 9.21131 13.5714 10 13.5714C10.7887 13.5714 11.4621 13.2924 12.0201 12.7344C12.5781 12.1763 12.8571 11.503 12.8571 10.7143ZM22.4107 21.4509L24.6652 12.9241C24.7545 12.5372 24.6987 12.1763 24.4978 11.8415C24.2969 11.5067 24.0104 11.2872 23.6384 11.183C23.2664 11.0789 22.9092 11.1272 22.567 11.3281C22.2247 11.529 22.0015 11.8229 21.8973 12.2098L19.6429 20.7366C18.75 20.811 17.9539 21.1347 17.2545 21.7076C16.5551 22.2805 16.0863 23.0134 15.8482 23.9063C15.5506 25.0521 15.6994 26.1384 16.2946 27.1652C16.8899 28.192 17.7604 28.8542 18.9062 29.1518C20.0521 29.4494 21.1384 29.3006 22.1652 28.7054C23.192 28.1101 23.8542 27.2396 24.1518 26.0938C24.3899 25.2009 24.3452 24.3304 24.0179 23.4821C23.6905 22.6339 23.1548 21.9568 22.4107 21.4509ZM37.1429 20.7143C37.1429 19.9256 36.8638 19.2522 36.3058 18.6942C35.7478 18.1362 35.0744 17.8571 34.2857 17.8571C33.497 17.8571 32.8237 18.1362 32.2656 18.6942C31.7076 19.2522 31.4286 19.9256 31.4286 20.7143C31.4286 21.503 31.7076 22.1763 32.2656 22.7344C32.8237 23.2924 33.497 23.5714 34.2857 23.5714C35.0744 23.5714 35.7478 23.2924 36.3058 22.7344C36.8638 22.1763 37.1429 21.503 37.1429 20.7143ZM22.8571 6.42857C22.8571 5.63988 22.5781 4.96652 22.0201 4.40848C21.4621 3.85045 20.7887 3.57143 20 3.57143C19.2113 3.57143 18.5379 3.85045 17.9799 4.40848C17.4219 4.96652 17.1429 5.63988 17.1429 6.42857C17.1429 7.21726 17.4219 7.89063 17.9799 8.44866C18.5379 9.0067 19.2113 9.28572 20 9.28572C20.7887 9.28572 21.4621 9.0067 22.0201 8.44866C22.5781 7.89063 22.8571 7.21726 22.8571 6.42857ZM32.8571 10.7143C32.8571 9.9256 32.5781 9.25223 32.0201 8.6942C31.4621 8.13616 30.7887 7.85714 30 7.85714C29.2113 7.85714 28.5379 8.13616 27.9799 8.6942C27.4219 9.25223 27.1429 9.9256 27.1429 10.7143C27.1429 11.503 27.4219 12.1763 27.9799 12.7344C28.5379 13.2924 29.2113 13.5714 30 13.5714C30.7887 13.5714 31.4621 13.2924 32.0201 12.7344C32.5781 12.1763 32.8571 11.503 32.8571 10.7143ZM40 20.7143C40 24.5982 38.9509 28.192 36.8527 31.4955C36.5699 31.9271 36.1682 32.1429 35.6473 32.1429H4.35268C3.83185 32.1429 3.43006 31.9271 3.14732 31.4955C1.04911 28.2068 0 24.6131 0 20.7143C0 18.006 0.528274 15.4167 1.58482 12.9464C2.64137 10.4762 4.0625 8.34822 5.84821 6.5625C7.63393 4.77679 9.7619 3.35566 12.2321 2.29911C14.7024 1.24256 17.2917 0.714287 20 0.714287C22.7083 0.714287 25.2976 1.24256 27.7679 2.29911C30.2381 3.35566 32.3661 4.77679 34.1518 6.5625C35.9375 8.34822 37.3586 10.4762 38.4152 12.9464C39.4717 15.4167 40 18.006 40 20.7143Z" fill="black"/>
</svg>
