<svg width="40" height="42" viewBox="0 0 40 42" fill="none" xmlns="http://www.w3.org/2000/svg">
<path d="M29.1672 0.166668H24.2019C18.0908 0.166668 14.2714 4.33333 14.2714 11V19.4375H22.7505L18.7974 15.125C18.6637 14.9806 18.5577 14.8086 18.4855 14.619C18.4134 14.4294 18.3766 14.2261 18.3773 14.0208C18.3773 13.625 18.511 13.2292 18.7974 12.9167C19.3512 12.3125 20.2679 12.3125 20.8217 12.9167L27.2193 19.8958C27.7731 20.5 27.7731 21.5 27.2193 22.1042L20.8217 29.0833C20.2679 29.6875 19.3512 29.6875 18.7974 29.0833C18.531 28.7893 18.3817 28.3926 18.3817 27.9792C18.3817 27.5658 18.531 27.169 18.7974 26.875L22.7505 22.5625H14.2714V31C14.2714 37.6667 18.0908 41.8333 24.2019 41.8333H29.1481C35.2592 41.8333 39.0787 37.6667 39.0787 31V11C39.0978 4.33333 35.2783 0.166668 29.1672 0.166668ZM2.33561 19.4375C1.55263 19.4375 0.90332 20.1458 0.90332 21C0.90332 21.8542 1.55263 22.5625 2.33561 22.5625H14.2714V19.4375H2.33561Z" fill="white"/>
</svg>
