<svg width="24" height="24" viewBox="0 0 24 24" fill="none" xmlns="http://www.w3.org/2000/svg">
<path d="M16 4.25C16 5.49 14.99 6.5 13.75 6.5H10.25C9.63 6.5 9.07 6.25 8.66 5.84C8.25 5.43 8 4.87 8 4.25C8 3.01 9.01 2 10.25 2H13.75C14.37 2 14.93 2.25 15.34 2.66C15.75 3.07 16 3.63 16 4.25Z" fill="black"/>
<path d="M18.83 5.029C18.5987 4.83925 18.3388 4.68736 18.06 4.579C17.77 4.469 17.48 4.699 17.42 4.999C17.08 6.709 15.57 7.999 13.75 7.999H10.25C9.25 7.999 8.31 7.609 7.6 6.899C7.08061 6.38371 6.72566 5.72599 6.58 5.009C6.52 4.709 6.22 4.469 5.93 4.589C4.77 5.059 4 6.119 4 8.249V17.999C4 20.999 5.79 21.999 8 21.999H16C18.21 21.999 20 20.999 20 17.999V8.249C20 6.619 19.55 5.619 18.83 5.029ZM8 12.249H12C12.41 12.249 12.75 12.589 12.75 12.999C12.75 13.409 12.41 13.749 12 13.749H8C7.59 13.749 7.25 13.409 7.25 12.999C7.25 12.589 7.59 12.249 8 12.249ZM16 17.749H8C7.59 17.749 7.25 17.409 7.25 16.999C7.25 16.589 7.59 16.249 8 16.249H16C16.41 16.249 16.75 16.589 16.75 16.999C16.75 17.409 16.41 17.749 16 17.749Z" fill="black"/>
</svg>
