<svg width="16" height="16" viewBox="0 0 16 16" fill="none" xmlns="http://www.w3.org/2000/svg">
<g clip-path="url(#clip0_5_13)">
<path d="M14.6667 14.6667L13.3333 13.3333M7.66667 14C8.49837 14 9.32193 13.8362 10.0903 13.5179C10.8587 13.1996 11.5569 12.7331 12.145 12.145C12.7331 11.5569 13.1996 10.8587 13.5179 10.0903C13.8362 9.32193 14 8.49837 14 7.66666C14 6.83496 13.8362 6.01139 13.5179 5.243C13.1996 4.4746 12.7331 3.77642 12.145 3.18832C11.5569 2.60021 10.8587 2.1337 10.0903 1.81542C9.32193 1.49714 8.49837 1.33333 7.66667 1.33333C5.98696 1.33333 4.37606 2.00059 3.18833 3.18832C2.0006 4.37605 1.33334 5.98696 1.33334 7.66666C1.33334 9.34637 2.0006 10.9573 3.18833 12.145C4.37606 13.3327 5.98696 14 7.66667 14Z" stroke="black" stroke-width="1.5" stroke-linecap="round" stroke-linejoin="round"/>
</g>
<defs>
<clipPath id="clip0_5_13">
<rect width="16" height="16" fill="white"/>
</clipPath>
</defs>
</svg>
